# xmcd
#
# Track frame offsets:
#	150
#	10757
#	23745
#	35077
#	48177
#	57440
#	66850
#	77435
#	88765
#	100100
#
# Disc length: 1464 seconds
#
# Revision: 1
# Processed by: cddbd v1.4PL0 Copyright (c) Steve Scherf et al.
# Submitted via: audiograbber 1.82.02
#
DISCID=7305b60a
DTITLE=Flatt and Scruggs - Perfect Pickin'
DYEAR=2001
DGENRE=Bluegrass
TTITLE0=Foggy Mountain Breakdown
TTITLE1=The Story of Bonnie and Clyde
TTITLE2=Petticoat Junction
TTITLE3=You Are My Flower
TTITLE4=The Ballad of Jed Clampett
TTITLE5=John Henry
TTITLE6=Foggy Mountain Top
TTITLE7=Coal Miner's Blues
TTITLE8=Wabash Cannon Ball
TTITLE9=Pearl, Pearl, Pearl
EXTD=
EXTT0=
EXTT1=
EXTT2=
EXTT3=
EXTT4=
EXTT5=
EXTT6=
EXTT7=
EXTT8=
EXTT9=
PLAYORDER=
